STARTFONT 2.1
COMMENT
COMMENT  WARNING:  This bdf file was generated from a font server using
COMMENT  fstobdf.  The resulting font is subject to the same copyright,
COMMENT  license, and trademark restrictions as the original font.  The
COMMENT  authors and distributors of fstobdf disclaim all liability for
COMMENT  misuse of the program or its output.
COMMENT
FONT vga
SIZE 16 75 75
FONTBOUNDINGBOX 8 16 0 -4
STARTPROPERTIES 11
POINT_SIZE 160
FONT "vga"
WEIGHT 10
RESOLUTION 103
RESOLUTION_X 75
RESOLUTION_Y 75
X_HEIGHT -1
QUAD_WIDTH 8
DEFAULT_CHAR 0
FONT_ASCENT 12
FONT_DESCENT 4
ENDPROPERTIES
CHARS 256
STARTCHAR C000
ENCODING 0
SWIDTH 480 0
DWIDTH 8 0
BBX 7 9 0 0
BITMAP
7c
c6
c6
de
de
de
dc
c0
7c
ENDCHAR
STARTCHAR C001
ENCODING 1
SWIDTH 480 0
DWIDTH 8 0
BBX 8 10 0 0
BITMAP
7e
81
a5
81
81
a5
99
81
81
7e
ENDCHAR
STARTCHAR C002
ENCODING 2
SWIDTH 480 0
DWIDTH 8 0
BBX 8 10 0 0
BITMAP
7e
ff
db
ff
ff
db
e7
ff
ff
7e
ENDCHAR
STARTCHAR C003
ENCODING 3
SWIDTH 480 0
DWIDTH 8 0
BBX 7 8 0 0
BITMAP
6c
fe
fe
fe
fe
7c
38
10
ENDCHAR
STARTCHAR C004
ENCODING 4
SWIDTH 480 0
DWIDTH 8 0
BBX 7 7 0 1
BITMAP
10
38
7c
fe
7c
38
10
ENDCHAR
STARTCHAR C005
ENCODING 5
SWIDTH 480 0
DWIDTH 8 0
BBX 8 9 0 0
BITMAP
18
3c
3c
e7
e7
e7
18
18
3c
ENDCHAR
STARTCHAR C006
ENCODING 6
SWIDTH 480 0
DWIDTH 8 0
BBX 8 9 0 0
BITMAP
18
3c
7e
ff
ff
7e
18
18
3c
ENDCHAR
STARTCHAR C007
ENCODING 7
SWIDTH 480 0
DWIDTH 8 0
BBX 4 4 2 2
BITMAP
60
f0
f0
60
ENDCHAR
STARTCHAR C010
ENCODING 8
SWIDTH 480 0
DWIDTH 8 0
BBX 8 16 0 -4
BITMAP
ff
ff
ff
ff
ff
ff
e7
c3
c3
e7
ff
ff
ff
ff
ff
ff
ENDCHAR
STARTCHAR C011
ENCODING 9
SWIDTH 480 0
DWIDTH 8 0
BBX 6 6 1 1
BITMAP
78
cc
84
84
cc
78
ENDCHAR
STARTCHAR C012
ENCODING 10
SWIDTH 480 0
DWIDTH 8 0
BBX 8 16 0 -4
BITMAP
ff
ff
ff
ff
ff
c3
99
bd
bd
99
c3
ff
ff
ff
ff
ff
ENDCHAR
STARTCHAR C013
ENCODING 11
SWIDTH 480 0
DWIDTH 8 0
BBX 7 10 0 0
BITMAP
1e
06
0e
1a
78
cc
cc
cc
cc
78
ENDCHAR
STARTCHAR C014
ENCODING 12
SWIDTH 480 0
DWIDTH 8 0
BBX 6 10 1 0
BITMAP
78
cc
cc
cc
cc
78
30
fc
30
30
ENDCHAR
STARTCHAR C015
ENCODING 13
SWIDTH 480 0
DWIDTH 8 0
BBX 8 10 0 0
BITMAP
3f
33
3f
30
30
30
30
70
f0
e0
ENDCHAR
STARTCHAR C016
ENCODING 14
SWIDTH 480 0
DWIDTH 8 0
BBX 8 11 0 -1
BITMAP
7f
63
7f
63
63
63
63
67
e7
e6
c0
ENDCHAR
STARTCHAR C017
ENCODING 15
SWIDTH 480 0
DWIDTH 8 0
BBX 8 9 0 0
BITMAP
18
18
db
3c
e7
3c
db
18
18
ENDCHAR
STARTCHAR C020
ENCODING 16
SWIDTH 480 0
DWIDTH 8 0
BBX 7 11 0 0
BITMAP
80
c0
e0
f0
f8
fe
f8
f0
e0
c0
80
ENDCHAR
STARTCHAR C021
ENCODING 17
SWIDTH 480 0
DWIDTH 8 0
BBX 7 11 0 0
BITMAP
02
06
0e
1e
3e
fe
3e
1e
0e
06
02
ENDCHAR
STARTCHAR C022
ENCODING 18
SWIDTH 480 0
DWIDTH 8 0
BBX 6 9 1 1
BITMAP
30
78
fc
30
30
30
fc
78
30
ENDCHAR
STARTCHAR C023
ENCODING 19
SWIDTH 480 0
DWIDTH 8 0
BBX 6 10 1 0
BITMAP
cc
cc
cc
cc
cc
cc
cc
00
cc
cc
ENDCHAR
STARTCHAR C024
ENCODING 20
SWIDTH 480 0
DWIDTH 8 0
BBX 8 10 0 0
BITMAP
7f
db
db
db
7b
1b
1b
1b
1b
1b
ENDCHAR
STARTCHAR C025
ENCODING 21
SWIDTH 480 0
DWIDTH 8 0
BBX 7 12 0 -1
BITMAP
7c
c6
60
38
6c
c6
c6
6c
38
0c
c6
7c
ENDCHAR
STARTCHAR C026
ENCODING 22
SWIDTH 480 0
DWIDTH 8 0
BBX 7 4 0 0
BITMAP
fe
fe
fe
fe
ENDCHAR
STARTCHAR C027
ENCODING 23
SWIDTH 480 0
DWIDTH 8 0
BBX 6 10 1 0
BITMAP
30
78
fc
30
30
30
fc
78
30
fc
ENDCHAR
STARTCHAR C030
ENCODING 24
SWIDTH 480 0
DWIDTH 8 0
BBX 6 10 1 0
BITMAP
30
78
fc
30
30
30
30
30
30
30
ENDCHAR
STARTCHAR C031
ENCODING 25
SWIDTH 480 0
DWIDTH 8 0
BBX 6 10 1 0
BITMAP
30
30
30
30
30
30
30
fc
78
30
ENDCHAR
STARTCHAR C032
ENCODING 26
SWIDTH 480 0
DWIDTH 8 0
BBX 7 5 0 2
BITMAP
18
0c
fe
0c
18
ENDCHAR
STARTCHAR C033
ENCODING 27
SWIDTH 480 0
DWIDTH 8 0
BBX 7 5 0 2
BITMAP
30
60
fe
60
30
ENDCHAR
STARTCHAR C034
ENCODING 28
SWIDTH 480 0
DWIDTH 8 0
BBX 7 4 0 2
BITMAP
c0
c0
c0
fe
ENDCHAR
STARTCHAR C035
ENCODING 29
SWIDTH 480 0
DWIDTH 8 0
BBX 7 5 0 2
BITMAP
28
6c
fe
6c
28
ENDCHAR
STARTCHAR C036
ENCODING 30
SWIDTH 480 0
DWIDTH 8 0
BBX 7 7 0 1
BITMAP
10
38
38
7c
7c
fe
fe
ENDCHAR
STARTCHAR C037
ENCODING 31
SWIDTH 480 0
DWIDTH 8 0
BBX 7 7 0 1
BITMAP
fe
fe
7c
7c
38
38
10
ENDCHAR
STARTCHAR space
ENCODING 32
SWIDTH 480 0
DWIDTH 8 0
BBX 0 0 0 0
BITMAP
ENDCHAR
STARTCHAR exclam
ENCODING 33
SWIDTH 480 0
DWIDTH 8 0
BBX 4 10 2 0
BITMAP
60
f0
f0
f0
60
60
60
00
60
60
ENDCHAR
STARTCHAR quotedbl
ENCODING 34
SWIDTH 480 0
DWIDTH 8 0
BBX 6 4 1 7
BITMAP
cc
cc
cc
48
ENDCHAR
STARTCHAR numbersign
ENCODING 35
SWIDTH 480 0
DWIDTH 8 0
BBX 7 9 0 0
BITMAP
6c
6c
fe
6c
6c
6c
fe
6c
6c
ENDCHAR
STARTCHAR dollar
ENCODING 36
SWIDTH 480 0
DWIDTH 8 0
BBX 7 14 0 -2
BITMAP
18
18
7c
c6
c2
c0
7c
06
06
86
c6
7c
18
18
ENDCHAR
STARTCHAR percent
ENCODING 37
SWIDTH 480 0
DWIDTH 8 0
BBX 7 8 0 0
BITMAP
c2
c6
0c
18
30
60
c6
86
ENDCHAR
STARTCHAR ampersand
ENCODING 38
SWIDTH 480 0
DWIDTH 8 0
BBX 7 10 0 0
BITMAP
38
6c
6c
38
76
dc
cc
cc
cc
76
ENDCHAR
STARTCHAR apostrophe
ENCODING 39
SWIDTH 480 0
DWIDTH 8 0
BBX 3 4 1 7
BITMAP
60
60
60
c0
ENDCHAR
STARTCHAR parenleft
ENCODING 40
SWIDTH 480 0
DWIDTH 8 0
BBX 4 10 2 0
BITMAP
30
60
c0
c0
c0
c0
c0
c0
60
30
ENDCHAR
STARTCHAR parenright
ENCODING 41
SWIDTH 480 0
DWIDTH 8 0
BBX 4 10 2 0
BITMAP
c0
60
30
30
30
30
30
30
60
c0
ENDCHAR
STARTCHAR asterisk
ENCODING 42
SWIDTH 480 0
DWIDTH 8 0
BBX 8 5 0 2
BITMAP
66
3c
ff
3c
66
ENDCHAR
STARTCHAR plus
ENCODING 43
SWIDTH 480 0
DWIDTH 8 0
BBX 6 5 1 2
BITMAP
30
30
fc
30
30
ENDCHAR
STARTCHAR comma
ENCODING 44
SWIDTH 480 0
DWIDTH 8 0
BBX 3 4 2 -1
BITMAP
60
60
60
c0
ENDCHAR
STARTCHAR minus
ENCODING 45
SWIDTH 480 0
DWIDTH 8 0
BBX 7 1 0 4
BITMAP
fe
ENDCHAR
STARTCHAR period
ENCODING 46
SWIDTH 480 0
DWIDTH 8 0
BBX 2 2 3 0
BITMAP
c0
c0
ENDCHAR
STARTCHAR slash
ENCODING 47
SWIDTH 480 0
DWIDTH 8 0
BBX 7 8 0 0
BITMAP
02
06
0c
18
30
60
c0
80
ENDCHAR
STARTCHAR 0
ENCODING 48
SWIDTH 480 0
DWIDTH 8 0
BBX 7 10 0 0
BITMAP
38
6c
c6
c6
d6
d6
c6
c6
6c
38
ENDCHAR
STARTCHAR 1
ENCODING 49
SWIDTH 480 0
DWIDTH 8 0
BBX 6 10 1 0
BITMAP
30
70
f0
30
30
30
30
30
30
fc
ENDCHAR
STARTCHAR 2
ENCODING 50
SWIDTH 480 0
DWIDTH 8 0
BBX 7 10 0 0
BITMAP
7c
c6
06
0c
18
30
60
c0
c6
fe
ENDCHAR
STARTCHAR 3
ENCODING 51
SWIDTH 480 0
DWIDTH 8 0
BBX 7 10 0 0
BITMAP
7c
c6
06
06
3c
06
06
06
c6
7c
ENDCHAR
STARTCHAR 4
ENCODING 52
SWIDTH 480 0
DWIDTH 8 0
BBX 7 10 0 0
BITMAP
0c
1c
3c
6c
cc
fe
0c
0c
0c
1e
ENDCHAR
STARTCHAR 5
ENCODING 53
SWIDTH 480 0
DWIDTH 8 0
BBX 7 10 0 0
BITMAP
fe
c0
c0
c0
fc
06
06
06
c6
7c
ENDCHAR
STARTCHAR 6
ENCODING 54
SWIDTH 480 0
DWIDTH 8 0
BBX 7 10 0 0
BITMAP
38
60
c0
c0
fc
c6
c6
c6
c6
7c
ENDCHAR
STARTCHAR 7
ENCODING 55
SWIDTH 480 0
DWIDTH 8 0
BBX 7 10 0 0
BITMAP
fe
c6
06
06
0c
18
30
30
30
30
ENDCHAR
STARTCHAR 8
ENCODING 56
SWIDTH 480 0
DWIDTH 8 0
BBX 7 10 0 0
BITMAP
7c
c6
c6
c6
7c
c6
c6
c6
c6
7c
ENDCHAR
STARTCHAR 9
ENCODING 57
SWIDTH 480 0
DWIDTH 8 0
BBX 7 10 0 0
BITMAP
7c
c6
c6
c6
7e
06
06
06
0c
78
ENDCHAR
STARTCHAR colon
ENCODING 58
SWIDTH 480 0
DWIDTH 8 0
BBX 2 7 3 1
BITMAP
c0
c0
00
00
00
c0
c0
ENDCHAR
STARTCHAR semicolon
ENCODING 59
SWIDTH 480 0
DWIDTH 8 0
BBX 3 8 2 0
BITMAP
60
60
00
00
00
60
60
c0
ENDCHAR
STARTCHAR less
ENCODING 60
SWIDTH 480 0
DWIDTH 8 0
BBX 6 9 1 0
BITMAP
0c
18
30
60
c0
60
30
18
0c
ENDCHAR
STARTCHAR equal
ENCODING 61
SWIDTH 480 0
DWIDTH 8 0
BBX 6 4 1 3
BITMAP
fc
00
00
fc
ENDCHAR
STARTCHAR greater
ENCODING 62
SWIDTH 480 0
DWIDTH 8 0
BBX 6 9 1 0
BITMAP
c0
60
30
18
0c
18
30
60
c0
ENDCHAR
STARTCHAR question
ENCODING 63
SWIDTH 480 0
DWIDTH 8 0
BBX 7 10 0 0
BITMAP
7c
c6
c6
0c
18
18
18
00
18
18
ENDCHAR
STARTCHAR at
ENCODING 64
SWIDTH 480 0
DWIDTH 8 0
BBX 7 9 0 0
BITMAP
7c
c6
c6
de
de
de
dc
c0
7c
ENDCHAR
STARTCHAR A
ENCODING 65
SWIDTH 480 0
DWIDTH 8 0
BBX 7 10 0 0
BITMAP
10
38
6c
c6
c6
fe
c6
c6
c6
c6
ENDCHAR
STARTCHAR B
ENCODING 66
SWIDTH 480 0
DWIDTH 8 0
BBX 7 10 0 0
BITMAP
fc
66
66
66
7c
66
66
66
66
fc
ENDCHAR
STARTCHAR C
ENCODING 67
SWIDTH 480 0
DWIDTH 8 0
BBX 7 10 0 0
BITMAP
3c
66
c2
c0
c0
c0
c0
c2
66
3c
ENDCHAR
STARTCHAR D
ENCODING 68
SWIDTH 480 0
DWIDTH 8 0
BBX 7 10 0 0
BITMAP
f8
6c
66
66
66
66
66
66
6c
f8
ENDCHAR
STARTCHAR E
ENCODING 69
SWIDTH 480 0
DWIDTH 8 0
BBX 7 10 0 0
BITMAP
fe
66
62
68
78
68
60
62
66
fe
ENDCHAR
STARTCHAR F
ENCODING 70
SWIDTH 480 0
DWIDTH 8 0
BBX 7 10 0 0
BITMAP
fe
66
62
68
78
68
60
60
60
f0
ENDCHAR
STARTCHAR G
ENCODING 71
SWIDTH 480 0
DWIDTH 8 0
BBX 7 10 0 0
BITMAP
3c
66
c2
c0
c0
de
c6
c6
66
3a
ENDCHAR
STARTCHAR H
ENCODING 72
SWIDTH 480 0
DWIDTH 8 0
BBX 7 10 0 0
BITMAP
c6
c6
c6
c6
fe
c6
c6
c6
c6
c6
ENDCHAR
STARTCHAR I
ENCODING 73
SWIDTH 480 0
DWIDTH 8 0
BBX 4 10 2 0
BITMAP
f0
60
60
60
60
60
60
60
60
f0
ENDCHAR
STARTCHAR J
ENCODING 74
SWIDTH 480 0
DWIDTH 8 0
BBX 7 10 0 0
BITMAP
1e
0c
0c
0c
0c
0c
cc
cc
cc
78
ENDCHAR
STARTCHAR K
ENCODING 75
SWIDTH 480 0
DWIDTH 8 0
BBX 7 10 0 0
BITMAP
e6
66
66
6c
78
78
6c
66
66
e6
ENDCHAR
STARTCHAR L
ENCODING 76
SWIDTH 480 0
DWIDTH 8 0
BBX 7 10 0 0
BITMAP
f0
60
60
60
60
60
60
62
66
fe
ENDCHAR
STARTCHAR M
ENCODING 77
SWIDTH 480 0
DWIDTH 8 0
BBX 7 10 0 0
BITMAP
c6
ee
fe
fe
d6
c6
c6
c6
c6
c6
ENDCHAR
STARTCHAR N
ENCODING 78
SWIDTH 480 0
DWIDTH 8 0
BBX 7 10 0 0
BITMAP
c6
e6
f6
fe
de
ce
c6
c6
c6
c6
ENDCHAR
STARTCHAR O
ENCODING 79
SWIDTH 480 0
DWIDTH 8 0
BBX 7 10 0 0
BITMAP
7c
c6
c6
c6
c6
c6
c6
c6
c6
7c
ENDCHAR
STARTCHAR P
ENCODING 80
SWIDTH 480 0
DWIDTH 8 0
BBX 7 10 0 0
BITMAP
fc
66
66
66
7c
60
60
60
60
f0
ENDCHAR
STARTCHAR Q
ENCODING 81
SWIDTH 480 0
DWIDTH 8 0
BBX 7 12 0 -2
BITMAP
7c
c6
c6
c6
c6
c6
c6
d6
de
7c
0c
0e
ENDCHAR
STARTCHAR R
ENCODING 82
SWIDTH 480 0
DWIDTH 8 0
BBX 7 10 0 0
BITMAP
fc
66
66
66
7c
6c
66
66
66
e6
ENDCHAR
STARTCHAR S
ENCODING 83
SWIDTH 480 0
DWIDTH 8 0
BBX 7 10 0 0
BITMAP
7c
c6
c6
60
38
0c
06
c6
c6
7c
ENDCHAR
STARTCHAR T
ENCODING 84
SWIDTH 480 0
DWIDTH 8 0
BBX 6 10 1 0
BITMAP
fc
fc
b4
30
30
30
30
30
30
78
ENDCHAR
STARTCHAR U
ENCODING 85
SWIDTH 480 0
DWIDTH 8 0
BBX 7 10 0 0
BITMAP
c6
c6
c6
c6
c6
c6
c6
c6
c6
7c
ENDCHAR
STARTCHAR V
ENCODING 86
SWIDTH 480 0
DWIDTH 8 0
BBX 7 10 0 0
BITMAP
c6
c6
c6
c6
c6
c6
c6
6c
38
10
ENDCHAR
STARTCHAR W
ENCODING 87
SWIDTH 480 0
DWIDTH 8 0
BBX 7 10 0 0
BITMAP
c6
c6
c6
c6
d6
d6
d6
fe
ee
6c
ENDCHAR
STARTCHAR X
ENCODING 88
SWIDTH 480 0
DWIDTH 8 0
BBX 7 10 0 0
BITMAP
c6
c6
6c
7c
38
38
7c
6c
c6
c6
ENDCHAR
STARTCHAR Y
ENCODING 89
SWIDTH 480 0
DWIDTH 8 0
BBX 6 10 1 0
BITMAP
cc
cc
cc
cc
78
30
30
30
30
78
ENDCHAR
STARTCHAR Z
ENCODING 90
SWIDTH 480 0
DWIDTH 8 0
BBX 7 10 0 0
BITMAP
fe
c6
86
0c
18
30
60
c2
c6
fe
ENDCHAR
STARTCHAR bracketleft
ENCODING 91
SWIDTH 480 0
DWIDTH 8 0
BBX 4 10 2 0
BITMAP
f0
c0
c0
c0
c0
c0
c0
c0
c0
f0
ENDCHAR
STARTCHAR backslash
ENCODING 92
SWIDTH 480 0
DWIDTH 8 0
BBX 7 9 0 0
BITMAP
80
c0
e0
70
38
1c
0e
06
02
ENDCHAR
STARTCHAR bracketright
ENCODING 93
SWIDTH 480 0
DWIDTH 8 0
BBX 4 10 2 0
BITMAP
f0
30
30
30
30
30
30
30
30
f0
ENDCHAR
STARTCHAR asciicircum
ENCODING 94
SWIDTH 480 0
DWIDTH 8 0
BBX 7 4 0 8
BITMAP
10
38
6c
c6
ENDCHAR
STARTCHAR underscore
ENCODING 95
SWIDTH 480 0
DWIDTH 8 0
BBX 8 1 0 -2
BITMAP
ff
ENDCHAR
STARTCHAR grave
ENCODING 96
SWIDTH 480 0
DWIDTH 8 0
BBX 3 3 2 9
BITMAP
c0
c0
60
ENDCHAR
STARTCHAR a
ENCODING 97
SWIDTH 480 0
DWIDTH 8 0
BBX 7 7 0 0
BITMAP
78
0c
7c
cc
cc
cc
76
ENDCHAR
STARTCHAR b
ENCODING 98
SWIDTH 480 0
DWIDTH 8 0
BBX 7 10 0 0
BITMAP
e0
60
60
78
6c
66
66
66
66
7c
ENDCHAR
STARTCHAR c
ENCODING 99
SWIDTH 480 0
DWIDTH 8 0
BBX 7 7 0 0
BITMAP
7c
c6
c0
c0
c0
c6
7c
ENDCHAR
STARTCHAR d
ENCODING 100
SWIDTH 480 0
DWIDTH 8 0
BBX 7 10 0 0
BITMAP
1c
0c
0c
3c
6c
cc
cc
cc
cc
76
ENDCHAR
STARTCHAR e
ENCODING 101
SWIDTH 480 0
DWIDTH 8 0
BBX 7 7 0 0
BITMAP
7c
c6
fe
c0
c0
c6
7c
ENDCHAR
STARTCHAR f
ENCODING 102
SWIDTH 480 0
DWIDTH 8 0
BBX 6 10 0 0
BITMAP
38
6c
64
60
f0
60
60
60
60
f0
ENDCHAR
STARTCHAR g
ENCODING 103
SWIDTH 480 0
DWIDTH 8 0
BBX 7 10 0 -3
BITMAP
76
cc
cc
cc
cc
cc
7c
0c
cc
78
ENDCHAR
STARTCHAR h
ENCODING 104
SWIDTH 480 0
DWIDTH 8 0
BBX 7 10 0 0
BITMAP
e0
60
60
6c
76
66
66
66
66
e6
ENDCHAR
STARTCHAR i
ENCODING 105
SWIDTH 480 0
DWIDTH 8 0
BBX 4 10 2 0
BITMAP
60
60
00
e0
60
60
60
60
60
f0
ENDCHAR
STARTCHAR j
ENCODING 106
SWIDTH 480 0
DWIDTH 8 0
BBX 6 13 1 -3
BITMAP
0c
0c
00
1c
0c
0c
0c
0c
0c
0c
cc
cc
78
ENDCHAR
STARTCHAR k
ENCODING 107
SWIDTH 480 0
DWIDTH 8 0
BBX 7 10 0 0
BITMAP
e0
60
60
66
6c
78
78
6c
66
e6
ENDCHAR
STARTCHAR l
ENCODING 108
SWIDTH 480 0
DWIDTH 8 0
BBX 4 10 2 0
BITMAP
e0
60
60
60
60
60
60
60
60
f0
ENDCHAR
STARTCHAR m
ENCODING 109
SWIDTH 480 0
DWIDTH 8 0
BBX 7 7 0 0
BITMAP
ec
fe
d6
d6
d6
d6
c6
ENDCHAR
STARTCHAR n
ENCODING 110
SWIDTH 480 0
DWIDTH 8 0
BBX 7 7 0 0
BITMAP
dc
66
66
66
66
66
66
ENDCHAR
STARTCHAR o
ENCODING 111
SWIDTH 480 0
DWIDTH 8 0
BBX 7 7 0 0
BITMAP
7c
c6
c6
c6
c6
c6
7c
ENDCHAR
STARTCHAR p
ENCODING 112
SWIDTH 480 0
DWIDTH 8 0
BBX 7 10 0 -3
BITMAP
dc
66
66
66
66
66
7c
60
60
f0
ENDCHAR
STARTCHAR q
ENCODING 113
SWIDTH 480 0
DWIDTH 8 0
BBX 7 10 0 -3
BITMAP
76
cc
cc
cc
cc
cc
7c
0c
0c
1e
ENDCHAR
STARTCHAR r
ENCODING 114
SWIDTH 480 0
DWIDTH 8 0
BBX 7 7 0 0
BITMAP
dc
76
66
60
60
60
f0
ENDCHAR
STARTCHAR s
ENCODING 115
SWIDTH 480 0
DWIDTH 8 0
BBX 7 7 0 0
BITMAP
7c
c6
60
38
0c
c6
7c
ENDCHAR
STARTCHAR t
ENCODING 116
SWIDTH 480 0
DWIDTH 8 0
BBX 7 10 0 0
BITMAP
10
30
30
fc
30
30
30
30
36
1c
ENDCHAR
STARTCHAR u
ENCODING 117
SWIDTH 480 0
DWIDTH 8 0
BBX 7 7 0 0
BITMAP
cc
cc
cc
cc
cc
cc
76
ENDCHAR
STARTCHAR v
ENCODING 118
SWIDTH 480 0
DWIDTH 8 0
BBX 6 7 1 0
BITMAP
cc
cc
cc
cc
cc
78
30
ENDCHAR
STARTCHAR w
ENCODING 119
SWIDTH 480 0
DWIDTH 8 0
BBX 7 7 0 0
BITMAP
c6
c6
d6
d6
d6
fe
6c
ENDCHAR
STARTCHAR x
ENCODING 120
SWIDTH 480 0
DWIDTH 8 0
BBX 7 7 0 0
BITMAP
c6
6c
38
38
38
6c
c6
ENDCHAR
STARTCHAR y
ENCODING 121
SWIDTH 480 0
DWIDTH 8 0
BBX 7 10 0 -3
BITMAP
c6
c6
c6
c6
c6
c6
7e
06
0c
f8
ENDCHAR
STARTCHAR z
ENCODING 122
SWIDTH 480 0
DWIDTH 8 0
BBX 7 7 0 0
BITMAP
fe
cc
18
30
60
c6
fe
ENDCHAR
STARTCHAR braceleft
ENCODING 123
SWIDTH 480 0
DWIDTH 8 0
BBX 6 10 1 0
BITMAP
1c
30
30
30
e0
30
30
30
30
1c
ENDCHAR
STARTCHAR bar
ENCODING 124
SWIDTH 480 0
DWIDTH 8 0
BBX 2 10 3 0
BITMAP
c0
c0
c0
c0
00
c0
c0
c0
c0
c0
ENDCHAR
STARTCHAR braceright
ENCODING 125
SWIDTH 480 0
DWIDTH 8 0
BBX 6 10 1 0
BITMAP
e0
30
30
30
1c
30
30
30
30
e0
ENDCHAR
STARTCHAR asciitilde
ENCODING 126
SWIDTH 480 0
DWIDTH 8 0
BBX 7 2 0 8
BITMAP
76
dc
ENDCHAR
STARTCHAR C177
ENCODING 127
SWIDTH 480 0
DWIDTH 8 0
BBX 7 7 0 1
BITMAP
10
38
6c
c6
c6
c6
fe
ENDCHAR
STARTCHAR C200
ENCODING 128
SWIDTH 480 0
DWIDTH 8 0
BBX 7 12 0 -2
BITMAP
3c
66
c2
c0
c0
c0
c2
66
3c
0c
06
7c
ENDCHAR
STARTCHAR C201
ENCODING 129
SWIDTH 480 0
DWIDTH 8 0
BBX 7 10 0 0
BITMAP
cc
00
00
cc
cc
cc
cc
cc
cc
76
ENDCHAR
STARTCHAR C202
ENCODING 130
SWIDTH 480 0
DWIDTH 8 0
BBX 7 11 0 0
BITMAP
0c
18
30
00
7c
c6
fe
c0
c0
c6
7c
ENDCHAR
STARTCHAR C203
ENCODING 131
SWIDTH 480 0
DWIDTH 8 0
BBX 7 11 0 0
BITMAP
10
38
6c
00
78
0c
7c
cc
cc
cc
76
ENDCHAR
STARTCHAR C204
ENCODING 132
SWIDTH 480 0
DWIDTH 8 0
BBX 7 10 0 0
BITMAP
cc
00
00
78
0c
7c
cc
cc
cc
76
ENDCHAR
STARTCHAR C205
ENCODING 133
SWIDTH 480 0
DWIDTH 8 0
BBX 7 11 0 0
BITMAP
60
30
18
00
78
0c
7c
cc
cc
cc
76
ENDCHAR
STARTCHAR C206
ENCODING 134
SWIDTH 480 0
DWIDTH 8 0
BBX 7 11 0 0
BITMAP
38
6c
38
00
78
0c
7c
cc
cc
cc
76
ENDCHAR
STARTCHAR C207
ENCODING 135
SWIDTH 480 0
DWIDTH 8 0
BBX 6 9 1 -1
BITMAP
78
cc
c0
c0
cc
78
18
0c
78
ENDCHAR
STARTCHAR C210
ENCODING 136
SWIDTH 480 0
DWIDTH 8 0
BBX 7 11 0 0
BITMAP
10
38
6c
00
7c
c6
fe
c0
c0
c6
7c
ENDCHAR
STARTCHAR C211
ENCODING 137
SWIDTH 480 0
DWIDTH 8 0
BBX 7 10 0 0
BITMAP
c6
00
00
7c
c6
fe
c0
c0
c6
7c
ENDCHAR
STARTCHAR C212
ENCODING 138
SWIDTH 480 0
DWIDTH 8 0
BBX 7 11 0 0
BITMAP
60
30
18
00
7c
c6
fe
c0
c0
c6
7c
ENDCHAR
STARTCHAR C213
ENCODING 139
SWIDTH 480 0
DWIDTH 8 0
BBX 6 10 1 0
BITMAP
cc
00
00
70
30
30
30
30
30
78
ENDCHAR
STARTCHAR C214
ENCODING 140
SWIDTH 480 0
DWIDTH 8 0
BBX 6 11 1 0
BITMAP
30
78
cc
00
70
30
30
30
30
30
78
ENDCHAR
STARTCHAR C215
ENCODING 141
SWIDTH 480 0
DWIDTH 8 0
BBX 5 11 1 0
BITMAP
c0
60
30
00
70
30
30
30
30
30
78
ENDCHAR
STARTCHAR C216
ENCODING 142
SWIDTH 480 0
DWIDTH 8 0
BBX 7 11 0 0
BITMAP
c6
00
10
38
6c
c6
c6
fe
c6
c6
c6
ENDCHAR
STARTCHAR C217
ENCODING 143
SWIDTH 480 0
DWIDTH 8 0
BBX 7 12 0 0
BITMAP
38
6c
38
00
38
6c
c6
c6
fe
c6
c6
c6
ENDCHAR
STARTCHAR C220
ENCODING 144
SWIDTH 480 0
DWIDTH 8 0
BBX 7 12 0 0
BITMAP
18
30
60
00
fe
66
60
7c
60
60
66
fe
ENDCHAR
STARTCHAR C221
ENCODING 145
SWIDTH 480 0
DWIDTH 8 0
BBX 7 7 0 0
BITMAP
cc
76
36
7e
d8
d8
6e
ENDCHAR
STARTCHAR C222
ENCODING 146
SWIDTH 480 0
DWIDTH 8 0
BBX 7 10 0 0
BITMAP
3e
6c
cc
cc
fe
cc
cc
cc
cc
ce
ENDCHAR
STARTCHAR C223
ENCODING 147
SWIDTH 480 0
DWIDTH 8 0
BBX 7 11 0 0
BITMAP
10
38
6c
00
7c
c6
c6
c6
c6
c6
7c
ENDCHAR
STARTCHAR C224
ENCODING 148
SWIDTH 480 0
DWIDTH 8 0
BBX 7 10 0 0
BITMAP
c6
00
00
7c
c6
c6
c6
c6
c6
7c
ENDCHAR
STARTCHAR C225
ENCODING 149
SWIDTH 480 0
DWIDTH 8 0
BBX 7 11 0 0
BITMAP
60
30
18
00
7c
c6
c6
c6
c6
c6
7c
ENDCHAR
STARTCHAR C226
ENCODING 150
SWIDTH 480 0
DWIDTH 8 0
BBX 7 11 0 0
BITMAP
30
78
cc
00
cc
cc
cc
cc
cc
cc
76
ENDCHAR
STARTCHAR C227
ENCODING 151
SWIDTH 480 0
DWIDTH 8 0
BBX 7 11 0 0
BITMAP
60
30
18
00
cc
cc
cc
cc
cc
cc
76
ENDCHAR
STARTCHAR C230
ENCODING 152
SWIDTH 480 0
DWIDTH 8 0
BBX 7 13 0 -3
BITMAP
c6
00
00
c6
c6
c6
c6
c6
c6
7e
06
0c
78
ENDCHAR
STARTCHAR C231
ENCODING 153
SWIDTH 480 0
DWIDTH 8 0
BBX 7 11 0 0
BITMAP
c6
00
7c
c6
c6
c6
c6
c6
c6
c6
7c
ENDCHAR
STARTCHAR C232
ENCODING 154
SWIDTH 480 0
DWIDTH 8 0
BBX 7 11 0 0
BITMAP
c6
00
c6
c6
c6
c6
c6
c6
c6
c6
7c
ENDCHAR
STARTCHAR C233
ENCODING 155
SWIDTH 480 0
DWIDTH 8 0
BBX 6 11 1 0
BITMAP
30
30
78
cc
c0
c0
c0
cc
78
30
30
ENDCHAR
STARTCHAR C234
ENCODING 156
SWIDTH 480 0
DWIDTH 8 0
BBX 7 11 0 0
BITMAP
38
6c
64
60
f0
60
60
60
60
e6
fc
ENDCHAR
STARTCHAR C235
ENCODING 157
SWIDTH 480 0
DWIDTH 8 0
BBX 6 10 1 0
BITMAP
cc
cc
78
30
fc
30
fc
30
30
30
ENDCHAR
STARTCHAR C236
ENCODING 158
SWIDTH 480 0
DWIDTH 8 0
BBX 7 11 0 0
BITMAP
f8
cc
cc
f8
c4
cc
de
cc
cc
cc
c6
ENDCHAR
STARTCHAR C237
ENCODING 159
SWIDTH 480 0
DWIDTH 8 0
BBX 8 13 0 -2
BITMAP
0e
1b
18
18
18
7e
18
18
18
18
18
d8
70
ENDCHAR
STARTCHAR nobreakspace
ENCODING 160
SWIDTH 480 0
DWIDTH 8 0
BBX 7 11 0 0
BITMAP
18
30
60
00
78
0c
7c
cc
cc
cc
76
ENDCHAR
STARTCHAR exclamdown
ENCODING 161
SWIDTH 480 0
DWIDTH 8 0
BBX 4 11 2 0
BITMAP
30
60
c0
00
e0
60
60
60
60
60
f0
ENDCHAR
STARTCHAR cent
ENCODING 162
SWIDTH 480 0
DWIDTH 8 0
BBX 7 11 0 0
BITMAP
18
30
60
00
7c
c6
c6
c6
c6
c6
7c
ENDCHAR
STARTCHAR sterling
ENCODING 163
SWIDTH 480 0
DWIDTH 8 0
BBX 7 11 0 0
BITMAP
18
30
60
00
cc
cc
cc
cc
cc
cc
76
ENDCHAR
STARTCHAR currency
ENCODING 164
SWIDTH 480 0
DWIDTH 8 0
BBX 7 10 0 0
BITMAP
76
dc
00
dc
66
66
66
66
66
66
ENDCHAR
STARTCHAR yen
ENCODING 165
SWIDTH 480 0
DWIDTH 8 0
BBX 7 12 0 0
BITMAP
76
dc
00
c6
e6
f6
fe
de
ce
c6
c6
c6
ENDCHAR
STARTCHAR brokenbar
ENCODING 166
SWIDTH 480 0
DWIDTH 8 0
BBX 6 6 1 5
BITMAP
78
d8
d8
7c
00
fc
ENDCHAR
STARTCHAR section
ENCODING 167
SWIDTH 480 0
DWIDTH 8 0
BBX 5 6 1 5
BITMAP
70
d8
d8
70
00
f8
ENDCHAR
STARTCHAR diaeresis
ENCODING 168
SWIDTH 480 0
DWIDTH 8 0
BBX 7 10 0 0
BITMAP
30
30
00
30
30
60
c0
c6
c6
7c
ENDCHAR
STARTCHAR copyright
ENCODING 169
SWIDTH 480 0
DWIDTH 8 0
BBX 7 5 0 1
BITMAP
fe
c0
c0
c0
c0
ENDCHAR
STARTCHAR ordfeminine
ENCODING 170
SWIDTH 480 0
DWIDTH 8 0
BBX 7 5 0 1
BITMAP
fe
06
06
06
06
ENDCHAR
STARTCHAR guillemotleft
ENCODING 171
SWIDTH 480 0
DWIDTH 8 0
BBX 7 13 0 -2
BITMAP
c0
c0
c2
c6
cc
18
30
60
dc
86
0c
18
3e
ENDCHAR
STARTCHAR notsign
ENCODING 172
SWIDTH 480 0
DWIDTH 8 0
BBX 7 13 0 -2
BITMAP
c0
c0
c2
c6
cc
18
30
66
ce
9e
3e
06
06
ENDCHAR
STARTCHAR hyphen
ENCODING 173
SWIDTH 480 0
DWIDTH 8 0
BBX 4 10 2 0
BITMAP
60
60
00
60
60
60
f0
f0
f0
60
ENDCHAR
STARTCHAR registered
ENCODING 174
SWIDTH 480 0
DWIDTH 8 0
BBX 7 5 0 2
BITMAP
36
6c
d8
6c
36
ENDCHAR
STARTCHAR macron
ENCODING 175
SWIDTH 480 0
DWIDTH 8 0
BBX 7 5 0 2
BITMAP
d8
6c
36
6c
d8
ENDCHAR
STARTCHAR degree
ENCODING 176
SWIDTH 480 0
DWIDTH 8 0
BBX 7 16 1 -4
BITMAP
22
88
22
88
22
88
22
88
22
88
22
88
22
88
22
88
ENDCHAR
STARTCHAR plusminus
ENCODING 177
SWIDTH 480 0
DWIDTH 8 0
BBX 8 16 0 -4
BITMAP
55
aa
55
aa
55
aa
55
aa
55
aa
55
aa
55
aa
55
aa
ENDCHAR
STARTCHAR twosuperior
ENCODING 178
SWIDTH 480 0
DWIDTH 8 0
BBX 8 16 0 -4
BITMAP
dd
77
dd
77
dd
77
dd
77
dd
77
dd
77
dd
77
dd
77
ENDCHAR
STARTCHAR threesuperior
ENCODING 179
SWIDTH 480 0
DWIDTH 8 0
BBX 2 16 3 -4
BITMAP
c0
c0
c0
c0
c0
c0
c0
c0
c0
c0
c0
c0
c0
c0
c0
c0
ENDCHAR
STARTCHAR acute
ENCODING 180
SWIDTH 480 0
DWIDTH 8 0
BBX 5 16 0 -4
BITMAP
18
18
18
18
18
18
18
f8
18
18
18
18
18
18
18
18
ENDCHAR
STARTCHAR mu
ENCODING 181
SWIDTH 480 0
DWIDTH 8 0
BBX 5 16 0 -4
BITMAP
18
18
18
18
18
f8
18
f8
18
18
18
18
18
18
18
18
ENDCHAR
STARTCHAR paragraph
ENCODING 182
SWIDTH 480 0
DWIDTH 8 0
BBX 7 16 0 -4
BITMAP
36
36
36
36
36
36
36
f6
36
36
36
36
36
36
36
36
ENDCHAR
STARTCHAR periodcentered
ENCODING 183
SWIDTH 480 0
DWIDTH 8 0
BBX 7 9 0 -4
BITMAP
fe
36
36
36
36
36
36
36
36
ENDCHAR
STARTCHAR cedilla
ENCODING 184
SWIDTH 480 0
DWIDTH 8 0
BBX 5 11 0 -4
BITMAP
f8
18
f8
18
18
18
18
18
18
18
18
ENDCHAR
STARTCHAR onesuperior
ENCODING 185
SWIDTH 480 0
DWIDTH 8 0
BBX 7 16 0 -4
BITMAP
36
36
36
36
36
f6
06
f6
36
36
36
36
36
36
36
36
ENDCHAR
STARTCHAR masculine
ENCODING 186
SWIDTH 480 0
DWIDTH 8 0
BBX 5 16 2 -4
BITMAP
d8
d8
d8
d8
d8
d8
d8
d8
d8
d8
d8
d8
d8
d8
d8
d8
ENDCHAR
STARTCHAR guillemotright
ENCODING 187
SWIDTH 480 0
DWIDTH 8 0
BBX 7 11 0 -4
BITMAP
fe
06
f6
36
36
36
36
36
36
36
36
ENDCHAR
STARTCHAR onequarter
ENCODING 188
SWIDTH 480 0
DWIDTH 8 0
BBX 7 8 0 4
BITMAP
36
36
36
36
36
f6
06
fe
ENDCHAR
STARTCHAR onehalf
ENCODING 189
SWIDTH 480 0
DWIDTH 8 0
BBX 7 8 0 4
BITMAP
36
36
36
36
36
36
36
fe
ENDCHAR
STARTCHAR threequarters
ENCODING 190
SWIDTH 480 0
DWIDTH 8 0
BBX 5 8 0 4
BITMAP
18
18
18
18
18
f8
18
f8
ENDCHAR
STARTCHAR questiondown
ENCODING 191
SWIDTH 480 0
DWIDTH 8 0
BBX 5 9 0 -4
BITMAP
f8
18
18
18
18
18
18
18
18
ENDCHAR
STARTCHAR Agrave
ENCODING 192
SWIDTH 480 0
DWIDTH 8 0
BBX 5 8 3 4
BITMAP
c0
c0
c0
c0
c0
c0
c0
f8
ENDCHAR
STARTCHAR Aacute
ENCODING 193
SWIDTH 480 0
DWIDTH 8 0
BBX 8 8 0 4
BITMAP
18
18
18
18
18
18
18
ff
ENDCHAR
STARTCHAR Acircumflex
ENCODING 194
SWIDTH 480 0
DWIDTH 8 0
BBX 8 9 0 -4
BITMAP
ff
18
18
18
18
18
18
18
18
ENDCHAR
STARTCHAR Atilde
ENCODING 195
SWIDTH 480 0
DWIDTH 8 0
BBX 5 16 3 -4
BITMAP
c0
c0
c0
c0
c0
c0
c0
f8
c0
c0
c0
c0
c0
c0
c0
c0
ENDCHAR
STARTCHAR Adiaeresis
ENCODING 196
SWIDTH 480 0
DWIDTH 8 0
BBX 8 1 0 4
BITMAP
ff
ENDCHAR
STARTCHAR Aring
ENCODING 197
SWIDTH 480 0
DWIDTH 8 0
BBX 8 16 0 -4
BITMAP
18
18
18
18
18
18
18
ff
18
18
18
18
18
18
18
18
ENDCHAR
STARTCHAR AE
ENCODING 198
SWIDTH 480 0
DWIDTH 8 0
BBX 5 16 3 -4
BITMAP
c0
c0
c0
c0
c0
f8
c0
f8
c0
c0
c0
c0
c0
c0
c0
c0
ENDCHAR
STARTCHAR Ccedilla
ENCODING 199
SWIDTH 480 0
DWIDTH 8 0
BBX 6 16 2 -4
BITMAP
d8
d8
d8
d8
d8
d8
d8
dc
d8
d8
d8
d8
d8
d8
d8
d8
ENDCHAR
STARTCHAR Egrave
ENCODING 200
SWIDTH 480 0
DWIDTH 8 0
BBX 6 8 2 4
BITMAP
d8
d8
d8
d8
d8
dc
c0
fc
ENDCHAR
STARTCHAR Eacute
ENCODING 201
SWIDTH 480 0
DWIDTH 8 0
BBX 6 11 2 -4
BITMAP
fc
c0
dc
d8
d8
d8
d8
d8
d8
d8
d8
ENDCHAR
STARTCHAR Ecircumflex
ENCODING 202
SWIDTH 480 0
DWIDTH 8 0
BBX 8 8 0 4
BITMAP
36
36
36
36
36
f7
00
ff
ENDCHAR
STARTCHAR Ediaeresis
ENCODING 203
SWIDTH 480 0
DWIDTH 8 0
BBX 8 11 0 -4
BITMAP
ff
00
f7
36
36
36
36
36
36
36
36
ENDCHAR
STARTCHAR Igrave
ENCODING 204
SWIDTH 480 0
DWIDTH 8 0
BBX 6 16 2 -4
BITMAP
d8
d8
d8
d8
d8
dc
c0
dc
d8
d8
d8
d8
d8
d8
d8
d8
ENDCHAR
STARTCHAR Iacute
ENCODING 205
SWIDTH 480 0
DWIDTH 8 0
BBX 8 3 0 4
BITMAP
ff
00
ff
ENDCHAR
STARTCHAR Icircumflex
ENCODING 206
SWIDTH 480 0
DWIDTH 8 0
BBX 8 16 0 -4
BITMAP
36
36
36
36
36
f7
00
f7
36
36
36
36
36
36
36
36
ENDCHAR
STARTCHAR Idiaeresis
ENCODING 207
SWIDTH 480 0
DWIDTH 8 0
BBX 8 8 0 4
BITMAP
18
18
18
18
18
ff
00
ff
ENDCHAR
STARTCHAR ETH
ENCODING 208
SWIDTH 480 0
DWIDTH 8 0
BBX 8 8 0 4
BITMAP
36
36
36
36
36
36
36
ff
ENDCHAR
STARTCHAR Ntilde
ENCODING 209
SWIDTH 480 0
DWIDTH 8 0
BBX 8 11 0 -4
BITMAP
ff
00
ff
18
18
18
18
18
18
18
18
ENDCHAR
STARTCHAR Ograve
ENCODING 210
SWIDTH 480 0
DWIDTH 8 0
BBX 8 9 0 -4
BITMAP
ff
36
36
36
36
36
36
36
36
ENDCHAR
STARTCHAR Oacute
ENCODING 211
SWIDTH 480 0
DWIDTH 8 0
BBX 6 8 2 4
BITMAP
d8
d8
d8
d8
d8
d8
d8
fc
ENDCHAR
STARTCHAR Ocircumflex
ENCODING 212
SWIDTH 480 0
DWIDTH 8 0
BBX 5 8 3 4
BITMAP
c0
c0
c0
c0
c0
f8
c0
f8
ENDCHAR
STARTCHAR Otilde
ENCODING 213
SWIDTH 480 0
DWIDTH 8 0
BBX 5 11 3 -4
BITMAP
f8
c0
f8
c0
c0
c0
c0
c0
c0
c0
c0
ENDCHAR
STARTCHAR Odiaeresis
ENCODING 214
SWIDTH 480 0
DWIDTH 8 0
BBX 6 9 2 -4
BITMAP
fc
d8
d8
d8
d8
d8
d8
d8
d8
ENDCHAR
STARTCHAR multiply
ENCODING 215
SWIDTH 480 0
DWIDTH 8 0
BBX 8 16 0 -4
BITMAP
36
36
36
36
36
36
36
ff
36
36
36
36
36
36
36
36
ENDCHAR
STARTCHAR Ooblique
ENCODING 216
SWIDTH 480 0
DWIDTH 8 0
BBX 8 16 0 -4
BITMAP
18
18
18
18
18
ff
18
ff
18
18
18
18
18
18
18
18
ENDCHAR
STARTCHAR Ugrave
ENCODING 217
SWIDTH 480 0
DWIDTH 8 0
BBX 5 8 0 4
BITMAP
18
18
18
18
18
18
18
f8
ENDCHAR
STARTCHAR Uacute
ENCODING 218
SWIDTH 480 0
DWIDTH 8 0
BBX 5 9 3 -4
BITMAP
f8
c0
c0
c0
c0
c0
c0
c0
c0
ENDCHAR
STARTCHAR Ucircumflex
ENCODING 219
SWIDTH 480 0
DWIDTH 8 0
BBX 8 16 0 -4
BITMAP
ff
ff
ff
ff
ff
ff
ff
ff
ff
ff
ff
ff
ff
ff
ff
ff
ENDCHAR
STARTCHAR Udiaeresis
ENCODING 220
SWIDTH 480 0
DWIDTH 8 0
BBX 8 9 0 -4
BITMAP
ff
ff
ff
ff
ff
ff
ff
ff
ff
ENDCHAR
STARTCHAR Yacute
ENCODING 221
SWIDTH 480 0
DWIDTH 8 0
BBX 4 16 0 -4
BITMAP
f0
f0
f0
f0
f0
f0
f0
f0
f0
f0
f0
f0
f0
f0
f0
f0
ENDCHAR
STARTCHAR THORN
ENCODING 222
SWIDTH 480 0
DWIDTH 8 0
BBX 4 16 4 -4
BITMAP
f0
f0
f0
f0
f0
f0
f0
f0
f0
f0
f0
f0
f0
f0
f0
f0
ENDCHAR
STARTCHAR ssharp
ENCODING 223
SWIDTH 480 0
DWIDTH 8 0
BBX 8 7 0 5
BITMAP
ff
ff
ff
ff
ff
ff
ff
ENDCHAR
STARTCHAR agrave
ENCODING 224
SWIDTH 480 0
DWIDTH 8 0
BBX 7 7 0 0
BITMAP
76
dc
d8
d8
d8
dc
76
ENDCHAR
STARTCHAR aacute
ENCODING 225
SWIDTH 480 0
DWIDTH 8 0
BBX 7 10 0 0
BITMAP
78
cc
cc
cc
d8
cc
c6
c6
c6
cc
ENDCHAR
STARTCHAR acircumflex
ENCODING 226
SWIDTH 480 0
DWIDTH 8 0
BBX 7 10 0 0
BITMAP
fe
c6
c6
c0
c0
c0
c0
c0
c0
c0
ENDCHAR
STARTCHAR atilde
ENCODING 227
SWIDTH 480 0
DWIDTH 8 0
BBX 7 8 0 0
BITMAP
fe
6c
6c
6c
6c
6c
6c
6c
ENDCHAR
STARTCHAR adiaeresis
ENCODING 228
SWIDTH 480 0
DWIDTH 8 0
BBX 7 9 0 0
BITMAP
fe
c6
60
30
18
30
60
c6
fe
ENDCHAR
STARTCHAR aring
ENCODING 229
SWIDTH 480 0
DWIDTH 8 0
BBX 7 7 0 0
BITMAP
7e
d8
d8
d8
d8
d8
70
ENDCHAR
STARTCHAR ae
ENCODING 230
SWIDTH 480 0
DWIDTH 8 0
BBX 7 9 0 -1
BITMAP
66
66
66
66
66
7c
60
60
c0
ENDCHAR
STARTCHAR ccedilla
ENCODING 231
SWIDTH 480 0
DWIDTH 8 0
BBX 7 8 0 0
BITMAP
76
dc
18
18
18
18
18
18
ENDCHAR
STARTCHAR egrave
ENCODING 232
SWIDTH 480 0
DWIDTH 8 0
BBX 6 9 1 0
BITMAP
fc
30
78
cc
cc
cc
78
30
fc
ENDCHAR
STARTCHAR eacute
ENCODING 233
SWIDTH 480 0
DWIDTH 8 0
BBX 7 9 0 0
BITMAP
38
6c
c6
c6
fe
c6
c6
6c
38
ENDCHAR
STARTCHAR ecircumflex
ENCODING 234
SWIDTH 480 0
DWIDTH 8 0
BBX 7 10 0 0
BITMAP
38
6c
c6
c6
c6
6c
6c
6c
6c
ee
ENDCHAR
STARTCHAR ediaeresis
ENCODING 235
SWIDTH 480 0
DWIDTH 8 0
BBX 6 10 1 0
BITMAP
3c
60
30
18
7c
cc
cc
cc
cc
78
ENDCHAR
STARTCHAR igrave
ENCODING 236
SWIDTH 480 0
DWIDTH 8 0
BBX 8 5 0 2
BITMAP
7e
db
db
db
7e
ENDCHAR
STARTCHAR iacute
ENCODING 237
SWIDTH 480 0
DWIDTH 8 0
BBX 8 9 0 0
BITMAP
03
06
7e
db
db
f3
7e
60
c0
ENDCHAR
STARTCHAR icircumflex
ENCODING 238
SWIDTH 480 0
DWIDTH 8 0
BBX 5 10 1 0
BITMAP
38
60
c0
c0
f8
c0
c0
c0
60
38
ENDCHAR
STARTCHAR idiaeresis
ENCODING 239
SWIDTH 480 0
DWIDTH 8 0
BBX 7 9 0 0
BITMAP
7c
c6
c6
c6
c6
c6
c6
c6
c6
ENDCHAR
STARTCHAR eth
ENCODING 240
SWIDTH 480 0
DWIDTH 8 0
BBX 7 7 0 1
BITMAP
fe
00
00
fe
00
00
fe
ENDCHAR
STARTCHAR ntilde
ENCODING 241
SWIDTH 480 0
DWIDTH 8 0
BBX 8 8 0 0
BITMAP
18
18
7e
18
18
00
00
ff
ENDCHAR
STARTCHAR ograve
ENCODING 242
SWIDTH 480 0
DWIDTH 8 0
BBX 6 9 1 0
BITMAP
60
30
18
0c
18
30
60
00
fc
ENDCHAR
STARTCHAR oacute
ENCODING 243
SWIDTH 480 0
DWIDTH 8 0
BBX 6 9 1 0
BITMAP
18
30
60
c0
60
30
18
00
fc
ENDCHAR
STARTCHAR ocircumflex
ENCODING 244
SWIDTH 480 0
DWIDTH 8 0
BBX 5 14 3 -4
BITMAP
70
d8
d8
c0
c0
c0
c0
c0
c0
c0
c0
c0
c0
c0
ENDCHAR
STARTCHAR otilde
ENCODING 245
SWIDTH 480 0
DWIDTH 8 0
BBX 5 12 0 0
BITMAP
18
18
18
18
18
18
18
18
d8
d8
d8
70
ENDCHAR
STARTCHAR odiaeresis
ENCODING 246
SWIDTH 480 0
DWIDTH 8 0
BBX 6 7 1 1
BITMAP
30
30
00
fc
00
30
30
ENDCHAR
STARTCHAR division
ENCODING 247
SWIDTH 480 0
DWIDTH 8 0
BBX 7 5 0 2
BITMAP
76
dc
00
76
dc
ENDCHAR
STARTCHAR oslash
ENCODING 248
SWIDTH 480 0
DWIDTH 8 0
BBX 5 4 1 7
BITMAP
70
d8
d8
70
ENDCHAR
STARTCHAR ugrave
ENCODING 249
SWIDTH 480 0
DWIDTH 8 0
BBX 2 2 3 3
BITMAP
c0
c0
ENDCHAR
STARTCHAR uacute
ENCODING 250
SWIDTH 480 0
DWIDTH 8 0
BBX 2 1 3 3
BITMAP
c0
ENDCHAR
STARTCHAR ucircumflex
ENCODING 251
SWIDTH 480 0
DWIDTH 8 0
BBX 8 11 0 0
BITMAP
0f
0c
0c
0c
0c
0c
ec
6c
6c
3c
1c
ENDCHAR
STARTCHAR udiaeresis
ENCODING 252
SWIDTH 480 0
DWIDTH 8 0
BBX 6 6 0 5
BITMAP
d8
6c
6c
6c
6c
6c
ENDCHAR
STARTCHAR yacute
ENCODING 253
SWIDTH 480 0
DWIDTH 8 0
BBX 5 6 0 5
BITMAP
70
d8
30
60
c8
f8
ENDCHAR
STARTCHAR thorn
ENCODING 254
SWIDTH 480 0
DWIDTH 8 0
BBX 5 7 1 1
BITMAP
f8
f8
f8
f8
f8
f8
f8
ENDCHAR
STARTCHAR ydiaeresis
ENCODING 255
SWIDTH 480 0
DWIDTH 8 0
BBX 0 0 0 0
BITMAP
ENDCHAR
ENDFONT
